<svg xmlns="http://www.w3.org/2000/svg" width="1024" height="1024" xmlns:v="https://vecta.io/nano"><path d="M636 147c3.947 2.771 5.743 5.6 6.738 10.34.432 4.392.337 8.793.189 13.2-.046 1.819.006 3.641.073 5.46l2 2-2 2c2.567 2.567 3.541 2.255 7.107 2.271l3.244.031 3.547.006 7.527.076 11.792.072c48.181.282 48.181.282 70.783 7.544l1.931.62c15.322 5.038 29.344 12.471 42.069 22.38l6.637 4.773L799 219v2l1.938.813C803 223 803 223 804 226l3 1v2h2c1.616 1.838 3.096 3.672 4.563 5.625l1.343 1.778c10.792 14.469 19.177 29.518 24.469 46.847l.723 2.36c4.217 14.637 4.328 29.235 4.523 44.347l.056 3.733.395 122.854-.022 34.269L845 561c-2.887 1.501-5.211 2.345-8.446 2.778l-2.639.364-2.825.366-2.921.395-6.105.812-9.355 1.25-5.932.793-2.832.379-2.63.344-2.312.305C797 569 797 569 794 569l-.472 2.087c-1.866 7.878-4.335 15.467-7.027 23.092-5.431 15.412-10.49 30.936-15.439 46.508l-.959 3.015-5.302 16.761-2.353 7.379-1.39 4.365-1.213 3.784c-.981 2.969-.981 2.969-.845 6.009l-2 2c-1.229 2.698-2.148 5.515-3.125 8.313l-.84 2.303c-1.409 3.994-2.147 7.114-2.035 11.385l-2 2a102.52 102.52 0 0 0-2.047 5.716l-1.203 3.632-1.285 3.946-1.329 4.044-2.776 8.491-3.558 10.84-2.741 8.362-1.312 3.993-1.831 5.613-1.052 3.218c-.928 3.37-1.441 6.678-1.866 10.144h-2l-2 8 3.593-.013 33.463-.09 17.205-.047 16.592-.039 6.342-.022 8.857-.016 2.67-.022c6.05.021 6.05.021 8.278 2.249l-2.098 2.059c-2.047 2.046-4.019 4.144-5.961 6.289-27.078 29.865-61.714 49.131-102.504 51.277l-7.454.273-10.319.414c-13.956.559-27.761.694-41.723.026-9.92-.421-19.773-.217-29.691.099l-2.417.076-4.771.151-2.336.074-2.306.073c-20.492.637-40.943-.049-61.421-.812l-1 2v-2l-7.25.438-2.066.119c-3.328.21-6.486.463-9.684 1.443v-2l-52.25-.062-3.894-.003c-34.597-.025-69.184.039-103.775.756l-5.879.117-6.928.154c-5.232.105-10.094-.106-15.275-.961a91.47 91.47 0 0 0-4.977-.027l-2.752.041-2.896.049c-12.023.108-24.474-.131-36.273-2.691-2.283-.575-2.283-.575-5.102.629l-1-2c-2.177-.694-2.177-.694-4.75-1.125l-2.609-.508c-2.586-.36-5.034-.433-7.641-.367l-1-3c-2.368-1.163-4.678-2.161-7.125-3.125-12.892-5.389-23.827-12.312-34.266-21.59-2.58-2.36-2.58-2.36-5.609-4.285v-2l-1.805-.793c-6.045-3.324-10.188-10.389-14.383-15.77l-1.26-1.605c-2.908-3.782-5.264-7.662-7.552-11.833h-2l-.246-1.918c-1.071-4.378-2.947-8.305-4.816-12.395l-1.143-2.533L188 753h-2c-2.146-4.417-2.146-4.417-1.445-7.219.586-3.66-.346-6.609-1.367-10.094-3.946-13.862-4.519-27.842-4.448-42.16l-.013-7.771c-.007-10.092.618-19.793 2.273-29.756l-2-1 2-1c.658-3.029.658-3.029 1-6h-3l-.102-125.252-.008-14.805-.002-2.977-.043-47.65-.034-48.935-.028-30.167-.011-20.72-.011-11.933c-.048-18.624-.063-36.87 4.488-55.06l.637-2.624c2.136-8.496 4.993-16.697 8.113-24.876h2l1-7h2c1.214-1.782 1.214-1.782 2.438-4.125 13.008-22.254 32.82-40.05 55.563-51.875l3.516-1.84c12.409-6.243 25.801-10.22 39.442-12.719 2.095-.364 2.095-.364 4.042-1.441 14.266-1.671 28.802-1.138 43.135-1.116l10.973.002 18.957.008 27.408.012 44.48.018 43.179.021 2.694.001 13.38.004L617 183l-.155-2.168-.595-9.832-.246-3.41c-.376-7.145.076-11.542 3.996-17.59 4.824-4.531 9.841-4.548 16-3zM448 345l-.687 2.75C441.177 368.946 426.85 384.903 408 396c-3.446 1.636-6.189 2.295-10 2.313l-2.5.051c-3.182-.462-4.934-1.428-7.5-3.363-1.773-2.453-1.773-2.453-3.375-5.25-3.629-5.944-7.196-11.211-13.687-14.125-5.421-1.199-5.421-1.199-10.937-1.625l-2-1c-7.784 1.292-13.569 5.551-18.316 11.707-4.627 7.837-5.737 18.64-3.559 27.355 1.401 4.142 3.136 7.494 5.875 10.938l1.484 1.914c2.123 2.67 2.123 2.67 4.516 5.086h3c2 3 2 3 3 6l1.066 1.918c1.669 3.723.908 7.219-.066 11.082-5.083 9.815-15.772 15.479-25.125 20.75l-2.067 1.171c-3.764 2.087-7.443 3.674-11.496 5.141-3.505 1.688-4.249 2.801-5.922 6.41-1.187 3.458-2.093 6.966-2.919 10.525-.664 2.82-1.481 5.593-2.284 8.377-.911 3.273-.911 3.273-1.187 6.625l1.914.813c10.813 4.737 20.799 10.788 30.875 16.902 1.957 1.138 3.914 2.135 5.961 3.098 4.748 2.272 9.064 5.247 13.415 8.191 3.596 2.439 3.596 2.439 7.835 2.997l.443-2.216L369 515l.492-2.646c.919-4.264 2.267-8.113 5.383-11.229 4.705-2.491 8.204-2.122 13.238-.727l3.533.953 3.666 1.023c15.511 4.272 31.163 8.148 46-.25 8.387-6.632 14.257-15.121 16.16-25.77.236-2.113.39-4.234.527-6.355h-2l2-6 1 4 .516-2.484.734-3.266.703-3.234c1.371-3.95 3.311-6.148 7.047-8.016 1.447-.151 2.899-.249 4.352-.316l2.578-.127 2.695-.119 2.719-.131L487 450l-3-11-4 1 .688-2.937c.811-5.886-1.784-10.805-3.934-16.176-2.377-6.002-4.365-11.674-5.395-18.059-.185-1.84-.185-1.84-1.359-2.828-.022-1.583.011-3.167.063-4.75.103-9.462-1.069-18.851-2.062-28.25l-2 1c-1.166-7.773-1.166-7.773 0-12-.337-2.516-.337-2.516-1-5l-1-4-9 1v-2l-7-1zm17 16l1 6h1v-6h-2zm16 73l1 2zm1 2l1 2zm226.688 144.5l-2.301.434c-8.347 1.582-16.653 3.302-24.929 5.222l-2.225.512c-3.4.588-3.4.588-6.232 2.332l-5.797.719c-4.575.584-8.999 1.712-13.457 2.875l-3.588.934-3.721.973-7.316 1.906-3.268.854-4.774 1.219c-29.861 7.488-59.487 15.981-89.079 24.459l-2.249.644-64.527 18.598L426 656c-1.315 4.359-.478 8.081.363 12.465l.461 2.513 1.488 7.96 1.926 10.402.469 2.528A517.58 517.58 0 0 1 434 712c8.218 1.305 14.64.598 22.563-1.812l3.275-.967c20.049-6.079 38.818-14.193 57.403-23.775 8.414-4.336 16.597-7.964 25.76-10.446l-1-2c33.597-.833 60.162 2.989 85.75 26.702 10.803 10.431 22.433 26.304 23.411 41.845-.513 7.457-4.586 11.735-9.16 17.453l56-1 1-2h2l.87-2.795 3.237-10.383 1.394-4.472 2.018-6.472.657-2.111a322.34 322.34 0 0 1 3.668-11.049c1.331-4.281 1.158-6.438.156-10.719l3 1 2.438-7.25.697-2.066c1.265-3.734 1.265-3.734 2.313-7.533.718-2.798 1.644-5.501 2.571-8.237l1.32-3.918.722-2.141 17.65-53.857 1.972-6.115L760 573c-16.883 0-34.771 4.358-51.312 7.5zM543 673v1h5v-1h-5zm-27.023 39.258c-3.617 2.007-7.255 3.934-10.977 5.742l-2 1-5.625 2.563-3.039 1.379L492 724l.938 5.938.527 3.34c.254 2.627.254 2.627 1.535 3.723a90.34 90.34 0 0 1 .375 4.25c.566 6.4 2.074 12.528 3.625 18.75h3v2c12.171-2.135 23.131-7.382 34-13.062l2.39-1.246c4.824-2.576 9.226-5.421 13.61-8.691l-1-3 1.668.703c3.418.435 4.86-1.015 7.645-2.953 7.113-4.72 12.9-8.062 21.688-6.75 7.356 2.155 12.567 7.877 18 13 6.144 5.919 6.144 5.919 14.133 8.063 4.168-.22 6.444-.769 9.93-3.187 2.564-3.804 2.755-5.343 1.938-9.875-3.485-7.783-9.142-13.919-15-20l-1.539-1.742c-2.448-2.108-5.343-1.964-8.461-2.258l-.187-2.312c-.593-2.868-.593-2.868-3.125-4.562-2.874-1.203-3.861-1.277-6.687-.125v-3c-27.562-12.081-50.314-2.47-75.023 11.258zM714 710l1 2zm-279 3l1 2zm-249 35l1 2z" fill="#b0d8c6"/><path d="M456.875 279.375c9.054 3.117 17.283 4.505 26.873 4.238 6.38-.097 10.274 1.371 15.252 5.387 5.764 5.636 8.087 11.973 8.375 19.938-.295 8.611-2.888 16.511-9.012 22.723-3.425 3.143-5.672 4.656-10.363 5.34l.551 2.656c3.093 15.61 5.108 31.348 6.114 47.229.689 10.618 1.881 19.354 6.335 29.114l2.342 5.482 2.302 5.319c4.935 11.648 8.467 26.543 4.449 39.012-2.534 4.288-5.671 6.845-10.094 9.188-3.312.465-6.54.381-9.875.25l-2.664-.055L481 475l-.043 2.168c-.764 15.959-8.284 30.948-19.957 41.832-16.898 13.174-38.196 13.916-58.776 11.701-4.146-.644-8.187-1.548-12.224-2.701l-.262 1.809c-1.133 6.997-2.959 13.623-5.149 20.351-1.163 3.711-1.879 6.15-.589 9.84a152.37 152.37 0 0 0 4.5 6.25c5.544 7.56 10.162 15.448 14.5 23.75l1.039 1.962c14.222 27.219 20.407 58.485 25.836 88.476l.459 2.515c1.753 9.679 3.177 19.209 3.666 29.048 8.032.406 14.871-.6 22.563-2.875l3.271-.951c19.788-5.916 38.33-13.894 56.646-23.348l1.882-.969 5.07-2.639C526 680 526 680 528 680l1-2c2.784-.854 5.595-1.473 8.434-2.121 2.884-.697 2.884-.697 4.566-3.879 2.787-.404 2.787-.404 6.344-.434l3.941-.035 4.215.031 2.137.01c29.399.205 52.64 10.437 73.363 31.427 14 15.535 14 15.535 14 22l2 1c2.985 7.089 5.402 14.441 3 22-2.176 3.977-4.791 6.845-8 10l22.479-.317 7.65-.104 10.984-.164 3.466-.035 3.215-.06 2.833-.04c2.638-.128 2.638-.128 5.373-2.278l2 1 .255-1.629c.969-5.478 2.411-10.713 4.163-15.988l.674-2.029 2.821-8.357 2.068-6.177 1.247-3.679c.762-3.097.707-4.221-.227-7.141l1-3h2l2.5-6.75.723-1.922c1.225-3.361 1.777-5.697 1.777-9.328h2l.695-3.586c1.364-6.106 3.418-11.97 5.442-17.881l12.894-39.389.664-2.102 5.988-19.036c8.284-26.495 8.284-26.495 12.936-37.559 1.664-4.152 3.071-8.358 4.452-12.612l.765-2.353 3.065-9.549 2.294-7.098.676-2.165c1.631-4.968 3.625-8.984 8.043-11.96 5.484-1.869 11.347-1.533 16.523.914 3.665 3.396 6.314 6.174 6.891 11.277-.159 5.819-2.239 11.338-3.953 16.848l-1.198 3.917c-7.751 25.219-16.126 50.249-24.49 75.27L762.75 666l-1.161 3.527-1.042 3.223-.911 2.797c-.803 2.676-.803 2.676-.636 6.453l-2 2c-1.229 2.698-2.148 5.515-3.125 8.313l-.84 2.303c-1.409 3.994-2.147 7.114-2.035 11.385l-2 2a102.52 102.52 0 0 0-2.047 5.716l-1.203 3.632-1.285 3.946-1.329 4.044-2.776 8.491-3.558 10.84-2.741 8.362-1.312 3.993-1.831 5.613-1.052 3.218c-.928 3.37-1.441 6.678-1.866 10.144h-2l-2 8 3.593-.013 33.463-.09 17.205-.047 16.592-.039 6.342-.022 8.857-.016 2.67-.022c6.05.021 6.05.021 8.278 2.249l-2.098 2.059c-2.047 2.046-4.019 4.144-5.961 6.289-27.078 29.865-61.714 49.131-102.504 51.277l-7.454.273-10.319.414c-13.956.559-27.761.694-41.723.026-9.92-.421-19.773-.217-29.691.099l-2.417.076-4.771.151-2.336.074-2.306.073c-20.492.637-40.943-.049-61.421-.812l-1 2v-2l-7.25.438-2.066.119c-3.328.21-6.486.463-9.684 1.443v-2l-52.25-.062-3.894-.003c-34.597-.025-69.184.039-103.775.756l-5.879.117-6.928.154c-5.232.105-10.094-.106-15.275-.961a91.47 91.47 0 0 0-4.977-.027l-2.752.041-2.896.049c-12.023.108-24.474-.131-36.273-2.691-2.283-.575-2.283-.575-5.102.629l-1-2c-2.177-.694-2.177-.694-4.75-1.125l-2.609-.508c-2.586-.36-5.034-.433-7.641-.367l-1-3c-2.368-1.163-4.678-2.161-7.125-3.125-12.892-5.389-23.827-12.312-34.266-21.59-2.58-2.36-2.58-2.36-5.609-4.285v-2l-1.805-.793c-6.045-3.324-10.188-10.389-14.383-15.77l-1.26-1.605c-2.908-3.782-5.264-7.662-7.552-11.833h-2l-.246-1.918c-1.071-4.378-2.947-8.305-4.816-12.395l-1.143-2.533L188 753h-2c-2.146-4.417-2.146-4.417-1.445-7.219.586-3.66-.346-6.609-1.367-10.094-3.946-13.862-4.519-27.842-4.448-42.16l-.013-7.771c-.007-10.092.618-19.793 2.273-29.756l-2-1 3-2c.747-2.072.747-2.072 1.105-4.531l.529-2.857.553-3.112c3.732-19.233 9.291-37.909 17.869-55.555l2.651-5.628c14.604-30.678 39.394-55.4 66.566-75.176L274 504l2.609-1.992c3.667-4.613 4.773-9.748 6.266-15.383l.969-3.367c2.808-10.256 1.692-15.95-3.469-25.008-17.06-31.302-25.035-72.187-15.637-107.199 9.727-32.359 29.934-57.567 59.387-73.801 41.289-21.787 90.764-12.356 132.75 2.125zM448 345l-.687 2.75C441.177 368.946 426.85 384.903 408 396c-3.446 1.636-6.189 2.295-10 2.313l-2.5.051c-3.182-.462-4.934-1.428-7.5-3.363-1.773-2.453-1.773-2.453-3.375-5.25-3.629-5.944-7.196-11.211-13.687-14.125-5.421-1.199-5.421-1.199-10.937-1.625l-2-1c-7.784 1.292-13.569 5.551-18.316 11.707-4.627 7.837-5.737 18.64-3.559 27.355 1.401 4.142 3.136 7.494 5.875 10.938l1.484 1.914c2.123 2.67 2.123 2.67 4.516 5.086h3c2 3 2 3 3 6l1.066 1.918c1.669 3.723.908 7.219-.066 11.082-5.083 9.815-15.772 15.479-25.125 20.75l-2.067 1.171c-3.764 2.087-7.443 3.674-11.496 5.141-3.505 1.688-4.249 2.801-5.922 6.41-1.187 3.458-2.093 6.966-2.919 10.525-.664 2.82-1.481 5.593-2.284 8.377-.911 3.273-.911 3.273-1.187 6.625l1.914.813c10.813 4.737 20.799 10.788 30.875 16.902 1.957 1.138 3.914 2.135 5.961 3.098 4.748 2.272 9.064 5.247 13.415 8.191 3.596 2.439 3.596 2.439 7.835 2.997l.443-2.216L369 515l.492-2.646c.919-4.264 2.267-8.113 5.383-11.229 4.705-2.491 8.204-2.122 13.238-.727l3.533.953 3.666 1.023c15.511 4.272 31.163 8.148 46-.25 8.387-6.632 14.257-15.121 16.16-25.77.236-2.113.39-4.234.527-6.355h-2l2-6 1 4 .516-2.484.734-3.266.703-3.234c1.371-3.95 3.311-6.148 7.047-8.016 1.447-.151 2.899-.249 4.352-.316l2.578-.127 2.695-.119 2.719-.131L487 450l-3-11-4 1 .688-2.937c.811-5.886-1.784-10.805-3.934-16.176-2.377-6.002-4.365-11.674-5.395-18.059-.185-1.84-.185-1.84-1.359-2.828-.022-1.583.011-3.167.063-4.75.103-9.462-1.069-18.851-2.062-28.25l-2 1c-1.166-7.773-1.166-7.773 0-12-.337-2.516-.337-2.516-1-5l-1-4-9 1v-2l-7-1zm17 16l1 6h1v-6h-2zm16 73l1 2zm1 2l1 2zm61 237v1h5v-1h-5zm-27.023 39.258c-3.617 2.007-7.255 3.934-10.977 5.742l-2 1-5.625 2.563-3.039 1.379L492 724l.938 5.938.527 3.34c.254 2.627.254 2.627 1.535 3.723a90.34 90.34 0 0 1 .375 4.25c.566 6.4 2.074 12.528 3.625 18.75h3v2c12.171-2.135 23.131-7.382 34-13.062l2.39-1.246c4.824-2.576 9.226-5.421 13.61-8.691l-1-3 1.668.703c3.418.435 4.86-1.015 7.645-2.953 7.113-4.72 12.9-8.062 21.688-6.75 7.356 2.155 12.567 7.877 18 13 6.144 5.919 6.144 5.919 14.133 8.063 4.168-.22 6.444-.769 9.93-3.187 2.564-3.804 2.755-5.343 1.938-9.875-3.485-7.783-9.142-13.919-15-20l-1.539-1.742c-2.448-2.108-5.343-1.964-8.461-2.258l-.187-2.312c-.593-2.868-.593-2.868-3.125-4.562-2.874-1.203-3.861-1.277-6.687-.125v-3c-27.562-12.081-50.314-2.47-75.023 11.258zM714 710l1 2zm-279 3l1 2zm-249 35l1 2z" fill="#003e43"/><path d="M636 147c2.745 2.03 4.707 3.649 5.452 7.088l.115 7.843.002 3.017-.082 9.853-.021 6.839-.124 17.987-.099 18.36L641 254l2.266.188 2.985.257 2.954.25C666.439 256.572 683.507 266.437 696 278l2.352 2.109c14.593 13.741 26.654 35.654 27.825 55.958.539 30.09.539 30.09-4.177 42.932l-1.168 3.266c-9.029 23.26-27.05 41.83-49.395 52.547-5.984 2.556-12.157 4.503-18.437 6.188l-1.907.544c-25.189 6.509-51.345.128-73.406-12.419-21.259-13.483-36.095-34.128-42.062-58.562-5.491-25.055-1.011-51.223 12.625-72.875 4.537-6.888 9.935-12.864 15.75-18.687l2.172-2.207C579.279 264.302 599.701 253.765 618 254l-.027-3.801-.18-35.447-.095-18.224-.078-17.584-.043-6.711-.031-9.394-.044-2.807c.027-4.198.121-6.429 2.389-10.061 4.657-4.354 10.112-5.014 16.108-2.971z" fill="#b2d9c8"/><path d="M636 147c2.745 2.03 4.707 3.649 5.452 7.088l.115 7.843.002 3.017-.082 9.853-.021 6.839-.124 17.987-.099 18.36L641 254l2.266.188 2.985.257 2.954.25C666.439 256.572 683.507 266.437 696 278l2.352 2.109c14.593 13.741 26.654 35.654 27.825 55.958.539 30.09.539 30.09-4.177 42.932l-1.168 3.266c-9.029 23.26-27.05 41.83-49.395 52.547-5.984 2.556-12.157 4.503-18.437 6.188l-1.907.544c-25.189 6.509-51.345.128-73.406-12.419-21.259-13.483-36.095-34.128-42.062-58.562-5.491-25.055-1.011-51.223 12.625-72.875 4.537-6.888 9.935-12.864 15.75-18.687l2.172-2.207C579.279 264.302 599.701 253.765 618 254l-.027-3.801-.18-35.447-.095-18.224-.078-17.584-.043-6.711-.031-9.394-.044-2.807c.027-4.198.121-6.429 2.389-10.061 4.657-4.354 10.112-5.014 16.108-2.971zm-55 149l-2.117 1.832c-12.549 11.597-19.937 28.845-21.137 45.746-.615 20.249 5.571 38.237 19.254 53.422l1.676 1.922c10.938 11.799 28.038 19.603 44.039 20.363 21.243.57 39.941-4.653 56.238-18.859 14.267-13.662 22.797-30.926 23.451-50.76.238-18.765-5.909-34.568-18.405-48.666l-1.574-1.859c-10.87-11.938-28.167-20.07-44.169-21.362C616.043 276.9 598.033 280.844 581 296z" fill="#013b3f"/><path d="M485.838 788.612l2.771-.016h9.231l6.602-.021 17.963-.011 14.978-.009 37.348.001 32.447-.027 33.304-.027 18.703-.016 17.584.007 6.463-.01 8.804.016 2.6-.029c5.747.072 5.747.072 8.894 2.405C705 793 705 793 705.5 795.5c-.688 3.441-1.676 4.404-4.5 6.5a62.78 62.78 0 0 1-8.92.508l-2.761.019c-3.06.016-6.12.003-9.18-.009l-6.573.021a3440.77 3440.77 0 0 1-17.869-.002c-6.227-.01-12.454-.001-18.68.006-11.128.008-22.256-.005-33.384-.025a8412.6 8412.6 0 0 0-30.273.004l-35.15.018c-6.203-.006-12.406-.007-18.609.006-5.831.012-11.662.004-17.493-.02a976.99 976.99 0 0 0-6.429.005c-2.92.011-5.838-.003-8.758-.023l-2.586.027c-3.65-.049-5.87-.197-8.864-2.375-1.987-2.919-1.985-4.701-1.47-8.16 3.154-4.07 7.064-3.421 11.838-3.388z" fill="#459c96"/><path d="M633 290c2.824 2.19 4.415 3.83 6 7l.098 8.945-.004 2.682-.031 8.498-.014 5.754L639 337l2.032-.048 9.156-.14 3.197-.076 3.096-.029 2.841-.048c4.61.586 7.092 2.627 9.991 6.153 1.889 3.568 2.348 5.223 1.688 9.188-2.04 3.658-3.504 5.669-7 8-2.963.245-5.83.376-8.797.406l-2.627.035-5.508.04-8.381.145-5.359.031-2.513.075c-5.563-.042-8.443-1.356-12.514-5.149-2.488-3.026-2.442-6.035-2.494-9.785l-.049-3.217-.109-14.549-.082-7.673-.091-11.066-.069-3.457c.024-8.855.024-8.855 3-12.542 4.502-3.984 8.731-4.142 14.592-3.294z" fill="#013a3d"/><path d="M234 664c21.062 9.027 33.602 57.935 41.75 78.25 6.758 16.781 14.074 32.452 25.25 46.75l1.504 2.094c4.57 6.003 11.269 9.818 17.496 13.906l3.406 2.27L326 809c-.875 4.875-.875 4.875-2 6-9.089 1.212-17.424-3.665-24.687-8.687-25.622-19.686-35.87-55.921-46.504-85l-4.119-11.22-6.504-17.821-2.321-6.38-3.017-8.362-.89-2.431c-1.355-3.823-2.33-6.973-1.957-11.096z" fill="#459f96"/><path d="M343 639c2.378.17 2.378.17 5 1 5.383 6.214 8.432 14.971 11.688 22.438l1.544 3.506c5.504 12.584 10.67 25.303 15.768 38.056l1.085 2.61c1.425 3.724 2.179 6.589.915 10.39-6.823 8.438-16.882 14.318-26 20l-2.218 1.395-6.782 4.167-2.102 1.303C337.63 746.4 334.083 747.841 329 748l-2-2c.131-2.457.131-2.457 1-5 1.696-1.479 1.696-1.479 3.91-2.691l2.479-1.406 2.674-1.465c6.939-3.971 13.567-8.101 19.938-12.937l1.973-1.49A211.59 211.59 0 0 0 364 717l2.5-1.969c1.806-1.975 1.806-1.975 1.253-4.728-.814-3.57-1.96-6.79-3.308-10.194l-.78-1.982-2.54-6.377-1.755-4.421c-8.023-21.094-8.023-21.094-17.523-41.5C341 644 341 644 341.313 641.813 342 640 342 640 343 639z" fill="#93c8ae"/><path d="M236 815l4.375 2.625 2.793 1.668 5.195 3.195c17.224 10.74 36.41 17.585 56.637 19.512v2h407v1c-8.993.844-17.973 1.329-27 1.625l-2.106.07c-9.557.305-19.027.263-28.582-.195-11.055-.529-22.008-.415-33.062-.062l-2.417.076-4.771.151-2.336.074-2.306.073c-20.492.637-40.943-.049-61.421-.812l-1 2v-2l-7.25.438-2.066.119c-3.328.21-6.486.463-9.684 1.443v-2l-52.25-.062-3.894-.003c-34.597-.025-69.184.039-103.775.756l-5.879.117-6.928.154c-5.232.105-10.094-.106-15.275-.961a91.47 91.47 0 0 0-4.977-.027l-2.752.041-2.896.049c-12.023.108-24.474-.131-36.273-2.691-2.283-.575-2.283-.575-5.102.629l-1-2c-2.177-.694-2.177-.694-4.75-1.125l-2.609-.508c-2.586-.36-5.034-.433-7.641-.367l-1-3c-2.368-1.163-4.677-2.162-7.125-3.125-5.985-2.476-11.592-5.256-17.125-8.625l-1.875-1.141c-6.7-4.15-6.7-4.15-8.875-6.109v-3z" fill="#22362b"/><path d="M179 671h1v39h2l.212 1.69c1.497 11.717 3.268 23.007 6.788 34.31l.98 3.293c5.576 17.17 14.7 34.827 27.832 47.449C219 798 219 798 219 800h2c2.625 2.375 2.625 2.375 5 5v2l1.688.688c2.945 1.671 4.994 3.865 7.313 6.313l-2 1-4.5-3.375-2.531-1.898L224 808v-2l-1.805-.793c-6.045-3.324-10.188-10.389-14.383-15.77l-1.26-1.605c-2.908-3.782-5.264-7.662-7.552-11.833h-2l-.246-1.918c-1.071-4.378-2.947-8.305-4.816-12.395l-1.143-2.533L188 753h-2c-2.146-4.417-2.146-4.417-1.445-7.219.586-3.66-.346-6.609-1.367-10.094-4.292-15.075-4.461-30.145-4.312-45.687l.027-5.562L179 671zm7 77l1 2z" fill="#304132"/><path d="M666.188 843.938l3.45.003L712 844v1c-8.993.844-17.973 1.329-27 1.625l-2.106.07c-9.557.305-19.027.263-28.582-.195-11.055-.529-22.008-.415-33.062-.062l-2.417.076-4.771.151-2.336.074-2.306.073c-20.492.637-40.943-.049-61.421-.812l-1 2v-2l-2-1 27.25-.5 2.152-.036 91.785-.527z" fill="#325240"/><path d="M485.851 788.633l2.775-.01 9.245.021 6.612-.006 17.987.026 18.791.015 31.558.041 32.491.041h2.022l4.032.001h2.009l2.004.001 32.802.03 11.217.01 17.598.029 6.475.008 8.806.019 2.617-.003c5.879.029 5.879.029 8.107 1.143l-1 2-2-1a232.41 232.41 0 0 0-8.572-.14l-2.721-.009-9.081-.012-6.489-.015-17.665-.024-11.025-.012-34.46-.027-39.842-.051-30.757-.033-18.389-.025-17.288-.01c-2.119.001-4.239-.004-6.358-.013a1080.87 1080.87 0 0 0-8.654.004l-2.563-.024c-4.252-.138-4.252-.138-7.748 1.915L477 794h-2l-1 4c-.368-5.515-.368-5.515 1.27-7.676 3.051-2.335 6.888-1.726 10.581-1.692z" fill="#67d1c4"/><path d="M722 780l2 1v3l3.593-.013 33.463-.09 17.205-.047 16.592-.039 6.342-.022 8.857-.016 2.67-.022c6.05.021 6.05.021 8.278 2.249l-5 2v-2h-95l1-6z" fill="#294137"/><path d="M323 472c-1 3-1 3-3.937 4.688C316 478 316 478 314 478c-3.227 6.454-5.267 13-7.187 19.938l-.826 2.939L304 508l2.832.934c2.771.933 5.46 1.969 8.168 3.066l3 1 2.188 1.813c3.385 2.633 6.941 4.382 10.813 6.188v1c-5.978-.452-9.964-2.309-15.062-5.375l-4.098-2.398-1.958-1.151c-2.574-1.47-5.215-2.785-7.882-4.075l1-8 .406-3.109c.466-3.311 1.016-6.598 1.594-9.891l.34-2.59c.892-4.313 1.994-5.945 5.676-8.516C319.526 472 319.526 472 323 472z" fill="#14423e"/><path d="M360.688 370.75l2.887-.016C366 371 366 371 368 373h-15v2l-4.187 2.625c-6.483 4.18-10.046 9.867-11.812 17.375-1.655 9.108-.815 16.973 3.75 25.125L343 423l1.813 2.359L350 432c-3 0-3 0-4.902-1.687-4.251-4.83-7.668-9.34-10.098-15.312l-1.25-2.875c-2.179-9.077-.684-18.313 3.504-26.609 5.306-8.616 13.015-14.822 23.434-14.766z" fill="#0c2323"/><path d="M614 296h1l.018 1.972.245 20.343.084 7.589.142 10.917.019 3.419c.132 7.079.685 11.73 5.657 17.097 3.717 2.18 7.004 2.266 11.198 2.272l2.4.05 7.549.091 5.135.09L660 360v1l-14.624.647-4.97.228-7.164.297-2.226.129c-6.178.179-9.37-2.007-13.891-5.926C616 355 616 355 616 353h-2c-1.271-2.543-1.127-4.322-1.129-7.168l-.01-3.266.006-3.539-.003-3.616.005-7.578-.006-11.647.004-7.346-.006-3.545.01-3.256.002-2.882C613 297 613 297 614 296z" fill="#aad2c4"/><path d="M312 844l103 1v1l-26.236.443-12.184.205-11.768.195-4.479.078-6.297.101-3.614.061c-3.548-.085-6.92-.536-10.423-1.082a116.66 116.66 0 0 0-5.539-.062l-3.008.023-3.078.039-6.102.063-2.706.035c-2.621-.1-5.014-.514-7.568-1.098v-1z" fill="#3b543f"/><path d="M635 291c3 1 3 1 4.669 3.52 1.625 4.249 1.713 7.662 1.624 12.16l-.013 2.463-.093 7.732-.041 5.266L641 335l3.797-.07 4.953-.055 2.5-.051 2.422-.02 2.222-.032C659 335 659 335 663 337h-24l-.113-8.539-.149-8.221-.084-5.697-.142-8.207-.019-2.558c-.124-4.996-.83-8.397-3.492-12.778z" fill="#ddf3eb"/><path d="M196 767c2.801 2.801 4.192 4.947 6.063 8.375 2.764 4.838 5.776 9.284 9.188 13.688l1.285 1.66c1.666 2.117 3.328 4.145 5.261 6.024C219 798 219 798 219 800h2c2.625 2.375 2.625 2.375 5 5v2l1.688.688c2.945 1.671 4.994 3.865 7.313 6.313l-2 1-4.5-3.375-2.531-1.898L224 808v-2l-1.805-.793c-6.045-3.324-10.188-10.389-14.383-15.77l-1.26-1.605c-2.908-3.782-5.264-7.662-7.552-11.833h-2l-1-9z" fill="#213128"/><path d="M641 154c1.824 3.648 2.245 4.523 2.125 8.258l-.047 2.395-.078 2.473V176l2 2-2 2 2 2h-3v72h-1V154z" fill="#6ea79d"/><path d="M658.813 758.121l3.665.072 11.522.245 7.84.158L701 759c-2.619 2.619-3.747 2.253-7.396 2.259l-3.419.019-3.709-.012-3.797.006a1975.89 1975.89 0 0 1-7.964-.011c-3.399-.011-6.797-.005-10.195.007-3.244.009-6.488.003-9.731-.002l-3.697.012-3.438-.019-3.023-.005c-2.687-.259-4.333-.88-6.632-2.254 6.98-1.107 13.758-1.043 20.813-.879z" fill="#021e20"/><path d="M468 359h1l2.199 20.523 1.445 13.391.543 5.023.253 2.286c.387 3.609.651 7.146.559 10.776h-2l-.148-2.152-.227-2.785-.211-2.777L471 401l-2-1 .07-1.887c.156-7.988-.522-15.787-1.359-23.725-1.277-12.258-1.277-12.258.289-15.388z" fill="#193431"/><path d="M722 786l36.665-.052 17.023-.024 16.417-.019 6.275-.011 8.764-.008 2.642-.011c5.986.01 5.986.01 8.214 1.124-1.37 3.161-1.989 3.993-5 6 0-3 0-3 2-6h-93v-1z" fill="#05373c"/><path d="M577.5 725.875l2.344-.008C582 726 582 726 585 727l1 3-2.062-.5c-6.474-1.102-10.84-.518-16.687 2.5l-1.811.934c-5.893 3.131-11.193 6.944-16.439 11.066l-2-1 2-2.375c2.202-2.34 2.202-2.34 2-4.625l2.055-.25c3.748-.954 6.788-2.774 10.07-4.75 8.651-5.144 8.651-5.144 14.375-5.125z" fill="#183632"/><path d="M290.405 839.498c4.901 1.378 9.527 2.147 14.595 2.502v2h7v1c-6.38.213-12.135-.422-18.398-1.66-2.709-.546-2.709-.546-5.602.66l-1-2c-2.177-.694-2.177-.694-4.75-1.125l-2.609-.508c-2.586-.36-5.034-.433-7.641-.367l-1-2c6.138-3.069 13.235-.259 19.405 1.498z" fill="#2e4131"/><path d="M335 395h1l-.105 2.02c-.282 9.613 1.051 18.245 7.105 25.98l1.813 2.359L350 432c-3 0-3 0-4.902-1.687-6.315-7.176-11.41-14.497-12.098-24.312.407-3.738 1.113-7.349 2-11z" fill="#16312d"/><path d="M464 450l2 1 4.789.098 2.852-.01 2.984-.025 3.008-.014L487 451v2l-1.788.044-8.024.268-2.814.068-2.705.107-2.491.079c-2.654.527-3.536 1.314-5.177 3.432-1.005 2.72-1.005 2.72-1.687 5.688l-.762 3.012L461 468h-1c-.534-7.245.284-11.729 4-18z" fill="#061d22"/><path d="M181 663h1c.921 4.655 1.122 9.147 1.063 13.875l-.014 2.086L183 684h-1l-1 26h-1l-.055-16.705-.021-5.677-.022-8.184-.016-2.542c0-4.74.32-9.217 1.113-13.892z" fill="#011b21"/><path d="M587 730c3.434.593 5.204 1.779 7.75 4.125l2.098 1.895L599 738c6.223 5.719 10.456 8.808 19 10v1c-4.585 1.268-7.173 1.283-11.437-.937-4.242-2.578-7.564-5.769-10.934-9.391-1.541-1.765-1.541-1.765-3.629-2.672v-2l-5-2v-2z" fill="#193934"/><path d="M542 672h31v1l-13 1v1l-7.187 1-2.041.289c-3.618.494-7.119.824-10.771.711l2-5zm1 1v1h5v-1h-5z" fill="#32554d"/><path d="M772 828l-8.937 4.375-2.518 1.25C755.062 836.271 749.991 837.9 744 839l2-1c.652-2.025.652-2.025 1-4l1.801-.262c6.161-1.044 11.205-2.941 16.754-5.812 2.77-1.049 3.699-.755 6.445.074z" fill="#1c3831"/><path d="M732 752h1c-.501 6.391-2.156 12.061-4.16 18.145-.981 2.839-.981 2.839-.84 5.855h-2l-1 5h-2c1.306-6.315 2.976-12.339 5.063-18.437l.814-2.428c1.967-5.823 1.967-5.823 3.123-8.135z" fill="#132b29"/><path d="M698 755l3 1v3h-53v-1l1.809-.025 18.589-.293 6.943-.104 9.963-.164 3.15-.035 2.912-.06 2.571-.04c2.285-.096 2.285-.096 4.063-2.278z" fill="#4a866e"/><path d="M285 473c1.016 4.064.923 5.238-.145 9.098l-.803 2.928-.865 3.037-.83 3.049c-2.083 7.476-2.083 7.476-4.357 10.889l-2-1 .898-2.57c1.097-3.414 1.941-6.807 2.727-10.305l.789-3.492L281 482h2l2-9z" fill="#d1eae1"/><path d="M234 664c3.452 1.426 5.101 3.097 7.25 6.125l1.578 2.195L244 674l-1 2-2-3-2 1v5c-2-1-2-1-2.852-2.891-2.564-7.82-2.564-7.82-2.148-12.109z" fill="#50aca0"/><path d="M728 336h1l.125 12.75.051 3.656.02 3.516.032 3.237c-.225 2.821-.769 4.449-2.227 6.841-1-1-1-1-1.114-3.225l.016-2.904.01-3.135.025-3.299.014-3.311L726 342h1l1-6z" fill="#a3cdc0"/><path d="M331 522c18.034 6.988 18.034 6.988 23 13v2c-4.912-1.739-9.27-4.32-13.75-6.937l-2.363-1.342-2.246-1.311-2.046-1.183C332 525 332 525 331 522z" fill="#1f3f38"/><path d="M711 725c1.094 3.336.897 5.707.188 9.125l-.52 2.633C710 739 710 739 708 741l-1.625 4.125-.789 2.195L705 749h-1c.511-6.437 1.729-11.959 4-18h2l1-6z" fill="#173532"/><path d="M484.73 788.707l2.274.013 7.183.093 4.873.041L511 789v1l-2.798.044-10.282.218-4.449.084-6.397.142-3.888.079c-3.382.459-4.123.872-6.186 3.432h-2l-1 4c-.361-5.411-.361-5.411 1.029-7.681 3.043-2.036 6.17-1.687 9.702-1.612z" fill="#68d3c6"/><path d="M607 710h2v2l1.75.75c2.579 1.433 4.311 3.034 6.25 5.25v2h2c1.508 1.898 1.508 1.898 3.125 4.375l1.633 2.461C625 729 625 729 625 731h-2l-3.687-5.062c-3.019-4.28-6.097-7.976-9.965-11.5C608 713 608 713 607 710z" fill="#132e2b"/><path d="M538.453 748.285L540 749l-2.437.813L535 751l-1 3c-3.911 1.637-7.815 2.402-12 3v-2l6.75-3.562 1.922-1.037c4.779-2.464 4.779-2.464 7.781-2.115z" fill="#133936"/><path d="M783 596h1c-.579 6.336-2.067 11.971-4.062 18l-.854 2.637L777 623h-1c-.379-6.019.927-10.668 2.938-16.312l.842-2.455c2.003-5.798 2.003-5.798 3.221-8.232z" fill="#182e2c"/><path d="M306 491h1c.402 6.166-1.032 11.177-3 17l6 2-1 3-7-4c.584-6.304 2.041-11.987 4-18z" fill="#153532"/><path d="M581 696c4.95.555 8.932 2.176 13.313 4.438l1.916.947c4.64 2.352 4.64 2.352 5.771 4.615-3.683-.6-7.345-1.248-11-2v-3l-10-3v-2z" fill="#173431"/><path d="M424 381h2c-1.547 4.011-4.117 5.988-7.437 8.625l-2.934 2.352A101.83 101.83 0 0 1 410 396c-2.187-.375-2.187-.375-4-1l2.414-1.539c5.81-3.775 10.823-7.448 15.586-12.461z" fill="#1a302a"/><path d="M641 154c1.824 3.648 2.245 4.523 2.125 8.258l-.047 2.395-.078 2.473V176l2 2-4 3v-27z" fill="#496e61"/><path d="M730 663h1c.626 6.888-1.642 12.589-4 19h-2l-1 5c-1.178-3.534-.754-4.449.434-7.887l.967-2.842 1.037-2.959 1.025-2.994L730 663z" fill="#213f3a"/><path d="M387 499v2l-1.793.043c-4.534.274-6.611.437-10.145 3.52L373 507h-2l-1 3c.199-4.279.722-5.722 3.813-8.812 4.973-3.413 7.305-3.391 13.188-2.187z" fill="#17322e"/><path d="M475 417c3 1 3 1 3.983 2.642l.841 2.104.928 2.287.936 2.404.971 2.393C485 434.687 485 434.687 485 437l-3-1v-5h-2l-2.5-5.875-1.406-3.305C475 419 475 419 475 417z" fill="#193532"/><path d="M601 681c5.05 1.397 8.696 3.599 12.875 6.625l1.797 1.273L620 692l-3 1c-2.283-1.191-4.356-2.408-6.5-3.812l-1.762-1.119L601 683v-2z" fill="#1e3a37"/><path d="M633 146v1h-5v2l3 1-2.812.875c-3.285 1.012-3.285 1.012-6.187 3.125l-3-2c4.72-4.975 7.17-6.152 14-6z" fill="#24524b"/><path d="M559 695v1l-2.746.551c-6.939 1.432-13.591 3.037-20.254 5.449l1-3c7.144-3.529 14.117-6.05 22-4z" fill="#1f3f39"/><path d="M183 647c2.568 3.852 1.827 6.364 1.125 10.688l-.316 2.127L183 665h-1l-1 5h-1c-.083-4.833.047-9.237 1-14l-2-1 3-2c.733-3.066.733-3.066 1-6z" fill="#2d4237"/><path d="M197 595c1.212 3.636.669 4.589-.652 8.105l-1.104 2.979-1.182 3.104-1.17 3.139L190 620c-1.139-3.832-.639-5.648.875-9.375 1.51-3.889 2.674-7.449 3.125-11.625h2l1-4z" fill="#ddf1eb"/><path d="M725 687c1.102 3.305.953 3.987-.187 7.125l-.73 2.133C723 698 723 698 719 699l1-9h2l1-2 2-1z" fill="#154544"/><path d="M323 472c-1 3-1 3-3.937 4.688C316 478 316 478 314 478l-1 2-4 3c.16-2.293.16-2.293 1-5 2.434-1.801 2.434-1.801 5.438-3.312l2.996-1.551C321 472 321 472 323 472z" fill="#163330"/><path d="M423.938 506.438l2.072.158L431 507c-2 2-2 2-5.301 2.23l-4.012-.043-3.988-.02c-3.044-.138-5.748-.454-8.699-1.168v-1c5.141-.902 9.697-.98 14.938-.562z" fill="#122425"/><path d="M337 737l2 1-6 5 3 2-7 1v-4c1.68-1.52 1.68-1.52 3.875-2.812l2.18-1.332L337 737z" fill="#78b29b"/><path d="M335 395h1l-.035 2.09c-.058 6.068.246 11.894 1.035 17.91h-2c-2.158-7.314-1.793-12.622 0-20z" fill="#1f4239"/><path d="M737 839l-1 3c-3.998.956-7.708 1.104-11.812 1.063l-3.52-.027L718 843v-1l8.375-1.5 2.406-.434C734.773 839 734.773 839 737 839z" fill="#122a27"/><path d="M652 739c-.276 6.205-1.106 10.102-5 15l-2-2 1.438-2.062c1.781-3.348 2.061-6.21 2.563-9.937 2-1 2-1 3-1z" fill="#1a3c37"/><path d="M626 733c2 2 2 2 2.438 5.813-.072 3.598-.418 4.163-2.812 7.188-2.625 2-2.625 2-4.625 2v-2l1.938-1.562c2.971-3.511 2.871-6.961 3.063-11.437z" fill="#122e2c"/><path d="M753 687h1c-.307 6.622-1.743 11.221-5 17-1.327-3.982.001-6.448 1.438-10.187l.736-1.982L753 687z" fill="#162e2c"/><path d="M464 450l2 3c-.645 2.305-.645 2.305-1.812 4.875-1.517 3.387-2.576 6.458-3.187 10.125h-1c-.534-7.245.284-11.729 4-18z" fill="#16312f"/><path d="M717 707c1 2 1 2 .441 4.164l-.879 2.461-.871 2.477L715 718c-1.562-1.625-1.562-1.625-3-4 .313-3.25.313-3.25 1-6l4-1zm-3 3l1 2z" fill="#21413b"/><path d="M439 364c1 3 1 3 .375 5.438-1.658 3.091-3.485 4.612-6.375 6.563h-2c1.41-3.039 3.089-5.594 5.125-8.25l1.633-2.141L439 364z" fill="#1b352f"/><path d="M698 755l3 1v3h-21v-1l3.43-.148 4.445-.227 2.262-.094c4.398-.088 4.398-.088 7.863-2.531z" fill="#427a66"/><path d="M180 710h2c1.333 11.522 1.333 11.522 0 17h-1c-.993-5.707-1.105-11.214-1-17z" fill="#2b3b2f"/><path d="M336.328 465.316L338 466l-4.75 3.063-2.672 1.723C328 472 328 472 325.672 471.684L324 471l4.75-3.062 2.672-1.723C334 465 334 465 336.328 465.316z" fill="#1a3530"/><path d="M529 681c-3.756 3.429-8.235 4.564-13 6v-2l4.813-2.562 2.707-1.441C526 680 526 680 529 681z" fill="#193231"/><path d="M362.25 372.375l2.703.336L367 373l1 3-2.812-.5c-3.144-.577-3.144-.577-6.187-.5l-1-1c-1.666-.041-3.334-.043-5 0 3.315-2.029 5.432-2.127 9.25-1.625z" fill="#296153"/><path d="M740 727h1c-.256 5.864-.658 9.658-5 14 .99-4.836 1.957-9.476 4-14z" fill="#142d2a"/><path d="M468 359h1c.904 6.326.904 11.674 0 18h-1l-.562-7.875-.17-2.262c-.381-5.637-.381-5.637.732-7.863z" fill="#1e403a"/><path d="M711 725c1.137 3.404.84 5.775.063 9.25l-.59 2.703L710 739c-2-2-2-2-2.125-5.125L708 731h2l1-6z" fill="#06292c"/><path d="M311 185v1l-6.687 1-3.762.563c-2.91.359-5.628.527-8.551.438 6.487-4.324 11.555-4.089 19-3z" fill="#b1cfbc"/><path d="M726 770h2v6h-2l-1 5h-2l.938-4.375.527-2.461C725 772 725 772 726 770z" fill="#1b3933"/><path d="M600 706l5 2v2l3 1c-3.053.981-4.947.981-8 0v-5z" fill="#286054"/><path d="M319 517c4.565.543 7.973 1.795 12 4v1c-4.749-.466-8.108-1.169-12-4v-1z" fill="#173431"/><path d="M306 491h1c.316 5.261-.334 8.446-3 13-1.184-3.552-.695-4.698.438-8.187l.871-2.73L306 491z" fill="#112423"/><path d="M456 479h1l-.312 4.313-.176 2.426c-.594 2.624-1.47 3.57-3.512 5.262l-1-4h2l2-8z" fill="#294a40"/><path d="M641 718l3 1 2 6 2 1-1 2h-2l-2-3.875-1.125-2.18C641 720 641 720 641 718z" fill="#183634"/><path d="M778 610l2 1-.875 4.313-.492 2.426C778 620 778 620 776 623c-.193-4.824.243-8.496 2-13z" fill="#223c36"/><path d="M591 290l1 2-3.812 3.563-2.145 2.004L584 299l-3-1 3.875-3.437 2.18-1.934C589 291 589 291 591 290z" fill="#a7d3c0"/><path d="M498 758l1 2h3v2l2 1h-3v2h-4l1-7z" fill="#21534b"/><path d="M487 701c-4.419 2.946-6.678 3.099-12 3 7.179-4.786 7.179-4.786 12-3z" fill="#223f3b"/><path d="M234 664c2.884 1.293 4.872 2.659 7 5l-1 2-3-3-2 3-1-7z" fill="#66c8b8"/><path d="M440 505c-3.448 2.053-5.317 3.063-9.375 2.688L428 507v-1c8.036-2.277 8.036-2.277 12-1z" fill="#1f3c38"/><path d="M495 720l3 2-2.5 1.188L493 725c-.418 2.627-.418 2.627 0 5-1.765-3.088-2-4.233-2-8l4-2z" fill="#234b42"/><path d="M504 694l-3.875 2-2.18 1.125C496 698 496 698 494 698v-2c5.893-3.348 5.893-3.348 10-2z" fill="#182f2d"/><path d="M375 500l2 1-4 6h-2l-1 3c.432-4.752 1.328-6.92 5-10z" fill="#1f3e38"/><path d="M266 833c3.806.672 7.352 1.727 11 3v1l-4.375-.437-2.461-.246C268 836 268 836 266 835v-2z" fill="#1b2d28"/><path d="M477 789l3 2-3 3h-2l-1 4c-.369-5.538-.369-5.538 1.5-7.875L477 789z" fill="#5bb6ab"/><path d="M522 708v2c-3.418 2.539-5.758 3.364-10 3 6.364-5 6.364-5 10-5z" fill="#182d2c"/><path d="M623 695l5 5-3 3c-2.152-3.228-2.201-4.284-2-8z" fill="#1b4c47"/><path d="M177 698h1v13h-2l-.062-5.937-.035-3.34C176 699 176 699 177 698z" fill="#52694b"/><path d="M425 660h1l.625 5.375.352 3.023L427 671l-2 2c-1.286-8.429-1.286-8.429 0-13z" fill="#2a4841"/><path d="M381 382c5.571 5.143 5.571 5.143 6 9-3-1-3-1-4.687-3.375C381 385 381 385 381 382z" fill="#122d2b"/><path d="M788 814h2c-1.393 3.367-2.979 4.986-6 7l-2-1 6-6z" fill="#22382c"/><path d="M810 794l2 1-6 7-1-3 5-5z" fill="#243429"/><path d="M346 532h6l2 5c-3.375-1.186-5.647-2.276-8-5z" fill="#16312d"/><path d="M397 504h8v2l3 1-3.812-.375-2.145-.211C400 506 400 506 397 504z" fill="#162c2c"/><path d="M278 495l1 2-3 7h-4v-2l1.875-1.375c2.259-1.728 3.053-3.033 4.125-5.625z" fill="#a6d0bf"/><path d="M444 352h1c.179 3.947.094 6.598-2 10h-2l3-10z" fill="#132a26"/><path d="M522 756l-1 4-5 1 2-2-1-2c2-1 2-1 5-1z" fill="#104442"/><path d="M766 647h1l-1 9h-2c.875-6.75.875-6.75 2-9z" fill="#112a2b"/><path d="M313 476l1 4-5 3c.313-2.375.313-2.375 1-5l3-2z" fill="#112c2a"/><path d="M354 438h2c1.354 2.709 1.065 5.009 1 8l-3-1v-7z" fill="#254e44"/><path d="M481 431c2 6 2 6 2 9h-3c-.125-6.75-.125-6.75 1-9z" fill="#337162"/><path d="M353 374c-2.688 2.252-4.646 3.882-8 5v-3c3.228-2.152 4.284-2.201 8-2z" fill="#19423c"/><path d="M622 148l2 1-1 5-4-2 3-4z" fill="#1f4644"/><path d="M584 700l6 2-3 2v-2l-3 1v-3z" fill="#2a6559"/><path d="M728 656l4 1-2 3h-2v-4z" fill="#487d6b"/><path d="M754 583l1 2-2 5c-.553-2.076-1-3.844-1-6l2-1z" fill="#77a692"/><path d="M192 765l3 4-3 3v-7z" fill="#4a5b3e"/><path d="M440 496l4 1-2 2-1 2-1-5z" fill="#3d7663"/><path d="M738 632c1 3 1 3 0 6l-2-1v-3h2v-2z" fill="#538674"/><path d="M696 752h4l-1 3v-2h-2l-1 2v-3z" fill="#2d6759"/><path d="M749 575h8v1h-8v-1z" fill="#a1c5b0"/><path d="M580 847h7v1h-7v-1z" fill="#386250"/><path d="M647 754l1 3-3 1 2-4z" fill="#2d6252"/><path d="M704 735h2l-1 5h-1v-5z" fill="#316759"/><path d="M177 712h2v5c-2-3.875-2-3.875-2-5z" fill="#4f6547"/><path d="M457 458l2 3-2 2-1-4 1-1z" fill="#3e7764"/><path d="M468 448h7v1h-7v-1z" fill="#316f60"/><path d="M476 847h6v1h-6v-1z" fill="#3a624e"/><path d="M201 781l2 3h-3l1-3z" fill="#4d5a3c"/><path d="M607 744l5 1-2 1-3-2z" fill="#276255"/><path d="M608 714l1 2 2 1h-3v-3z" fill="#286257"/><path d="M480 698l3 2-4 1 1-3z" fill="#457b69"/><path d="M486 696h5l-4 2-1-2z" fill="#457e6a"/><path d="M177 616h1v6h-1v-6z" fill="#aec3a7"/><path d="M384 392l3 4-3-1v-3z" fill="#2e6656"/><path d="M725 184h6v1h-6v-1z" fill="#bcd4bc"/><path d="M672 847h5v1h-5v-1z" fill="#3b6350"/><path d="M645 847h5v1h-5v-1z" fill="#39634f"/><path d="M712 846h5v1h-5v-1z" fill="#3b5e47"/><path d="M224 809h2l-1 3-1-3z" fill="#4d5a3a"/><path d="M184 753h2l-1 3-1-3z" fill="#4b5e40"/><path d="M624 737h1v5h-1v-5z" fill="#276054"/><path d="M177 629h1v5h-1v-5z" fill="#a3b89b"/><path d="M409 504h5v1h-5v-1z" fill="#3f7766"/><path d="M177 481h1v5h-1v-5z" fill="#bed5bc"/><path d="M480 441l2 2-2 2v-4z" fill="#306f5f"/><path d="M845 309h1v5h-1v-5z" fill="#b9d2ba"/><path d="M559 847l4 1z" fill="#38634f"/><path d="M735 751l1 4z" fill="#306456"/><path d="M608 718l3 2h-3v-2z" fill="#266258"/><path d="M176 688l1 4z" fill="#556d4e"/><path d="M177 682l1 4z" fill="#556e50"/><path d="M520 680l4 1z" fill="#4c826e"/><path d="M177 674l1 4z" fill="#5c7657"/><path d="M176 656h2v2h-2v-2z" fill="#728c6a"/><path d="M441 653l2 1h-3l1-1z" fill="#a5c8b2"/><path d="M180 649l1 4z" fill="#789273"/><path d="M707 582l4 1z" fill="#b4d3bd"/><path d="M712 581l4 1z" fill="#b3d3bc"/><path d="M177 542l1 4z" fill="#bed3bb"/><path d="M380 496h3l-1 2-2-2z" fill="#3d7563"/><path d="M316 478l2 1h-3l1-1z" fill="#2c6456"/><path d="M472 417l2 1-2 2v-3z" fill="#377160"/><path d="M389 398l3 1h-3v-1z" fill="#326958"/><path d="M468 393l1 4z" fill="#346e5e"/><path d="M467 380l1 4z" fill="#326e5e"/><path d="M377 382l2 2-3-1 1-1z" fill="#2a6254"/><path d="M732 185l4 1z" fill="#bad4bc"/><path d="M290 185l4 1z" fill="#bdd4bb"/><path d="M296 184l4 1z" fill="#bdd6be"/><path d="M616 152l1 4z" fill="#669279"/><path d="M628 144l4 1z" fill="#5d8670"/><path d="M695 847l3 1z" fill="#3b634f"/><path d="M688 847l3 1z" fill="#3a644e"/><path d="M680 847l3 1z" fill="#3b624f"/><path d="M640 847l3 1z" fill="#39624f"/><path d="M631 847l3 1z" fill="#396251"/><path d="M624 847l3 1z" fill="#376350"/><path d="M600 847l3 1z" fill="#38634f"/><path d="M596 847l3 1z" fill="#3a6451"/><path d="M592 847l3 1z" fill="#396350"/><path d="M248 827h2l-1 2-1-2z" fill="#4a5938"/><path d="M194 771h2l-1 2-1-2z" fill="#495c3e"/><path d="M617 724l2 2h-2v-2z" fill="#276256"/><path d="M611 717l2 2h-2v-2z" fill="#286157"/><path d="M713 704l3 1z" fill="#377061"/><path d="M177 692l1 2-2-1 1-1z" fill="#526c4e"/><path d="M536 672l3 1z" fill="#528774"/><path d="M641 597l3 1z" fill="#b6d5bf"/><path d="M815 567l3 1z" fill="#acccb4"/><path d="M360 537l3 1z" fill="#316557"/><path d="M331 470h2l-1 2-1-2z" fill="#326b59"/><path d="M464 369l2 2h-2v-2z" fill="#2e695b"/><path d="M692 847l2 1z" fill="#3a624e"/><path d="M664 847l2 1z" fill="#386250"/><path d="M628 847l2 1z" fill="#396450"/><path d="M616 847l2 1z" fill="#396250"/><path d="M588 847l2 1z" fill="#376352"/><path d="M567 847l2 1z" fill="#37624f"/><path d="M544 847l2 1z" fill="#396450"/><path d="M540 847l2 1z" fill="#3a6250"/><path d="M536 847l2 1z" fill="#38624f"/><path d="M512 847l2 1z" fill="#39624f"/><path d="M508 847l2 1z" fill="#3a6450"/><path d="M504 847l2 1z" fill="#3b644f"/><path d="M496 847l2 1z" fill="#39634f"/><path d="M492 847l2 1z" fill="#3b6552"/><path d="M472 847l2 1z" fill="#3a614e"/><path d="M464 847l2 1z" fill="#396150"/><path d="M432 847l2 1z" fill="#3a614c"/><path d="M424 847l2 1z" fill="#3d624d"/><path d="M392 847l2 1z" fill="#3d614c"/><path d="M376 847l2 1z" fill="#40644b"/><path d="M352 847l2 1z" fill="#436149"/><path d="M336 847l2 1z" fill="#436047"/><path d="M307 846l2 1z" fill="#495b3e"/><path d="M291 844l2 1z" fill="#4b5c3c"/><path d="M753 837l2 1z" fill="#405d44"/><path d="M187 758l2 1z" fill="#4b5d40"/><path d="M524 752l2 1z" fill="#266257"/><path d="M614 746l2 1z" fill="#236356"/><path d="M620 744l2 1z" fill="#236357"/><path d="M546 740l2 1z" fill="#276257"/><path d="M588 728l2 1z" fill="#225d54"/><path d="M579 724l2 1z" fill="#266255"/><path d="M494 724l2 1z" fill="#296359"/><path d="M507 718l2 1z" fill="#2a6458"/><path d="M509 717l2 1z" fill="#286758"/><path d="M524 709l2 1z" fill="#2a6658"/><path d="M526 708l2 1z" fill="#2c6259"/><path d="M455 707l2 1z" fill="#3f7766"/><path d="M467 704l2 1z" fill="#3e7666"/><path d="M464 704l2 1z" fill="#3d7967"/><path d="M535 703l2 1z" fill="#326a5b"/><path d="M540 701l2 1z" fill="#2c685c"/><path d="M542 700l2 1z" fill="#2d655b"/><path d="M496 690l2 1z" fill="#497f6e"/><path d="M722 680l2 1z" fill="#417866"/><path d="M603 680l2 1z" fill="#457969"/><path d="M517 680l2 1z" fill="#4f8472"/><path d="M536 674l2 1z" fill="#518472"/><path d="M586 673l2 1z" fill="#4d8171"/><path d="M581 672l2 1z" fill="#497f70"/><path d="M468 646l2 1z" fill="#afd1bb"/><path d="M497 637l2 1z" fill="#afd1bc"/><path d="M579 614l2 1z" fill="#b4d5bd"/><path d="M583 613l2 1z" fill="#b3d4be"/><path d="M585 612l2 1z" fill="#b3d4bd"/><path d="M744 610l2 1z" fill="#5e917e"/><path d="M604 607l2 1z" fill="#b7d6bf"/><path d="M612 605l2 1z" fill="#b7d5be"/><path d="M615 604l2 1z" fill="#b5d6be"/><path d="M622 602l2 1z" fill="#b6d4bd"/><path d="M702 583l2 1z" fill="#b7d4be"/><path d="M726 579l2 1z" fill="#b1d1b9"/><path d="M824 566l2 1z" fill="#afcbb4"/><path d="M832 565l2 1z" fill="#aec9b1"/><path d="M358 536l2 1z" fill="#2c6655"/><path d="M368 504l2 1z" fill="#3d7260"/><path d="M445 496l2 1z" fill="#417f68"/><path d="M342 463l2 1z" fill="#346454"/><path d="M465 448l2 1z" fill="#357261"/><path d="M346 426l2 1z" fill="#2c6656"/><path d="M474 422l2 1z" fill="#367160"/><path d="M404 399l2 1z" fill="#396a59"/><path d="M342 387l2 1z" fill="#236055"/><path d="M343 383l2 1z" fill="#245c52"/><path d="M356 375l2 1z" fill="#246259"/><path d="M353 375l2 1z" fill="#216158"/><path d="M205 240l2 1z" fill="#bcd3b7"/><path d="M758 193l2 1z" fill="#bad2bb"/><path d="M756 192l2 1z" fill="#bbd3bc"/><path d="M600 181l2 1z" fill="#aac8b0"/><path d="M367 181l2 1z" fill="#bdd4bc"/><path d="M616 147l2 1z" fill="#6d9078"/></svg>